<?xml version="1.0" encoding="UTF-8"?>
<!DOCTYPE svg PUBLIC "-//W3C//DTD SVG 1.1//EN" "http://www.w3.org/Graphics/SVG/1.1/DTD/svg11.dtd">
<svg xmlns="http://www.w3.org/2000/svg" version="1.1" width="512px" height="512px" style="shape-rendering:geometricPrecision; text-rendering:geometricPrecision; image-rendering:optimizeQuality; fill-rule:evenodd; clip-rule:evenodd" xmlns:xlink="http://www.w3.org/1999/xlink">
<g><path style="opacity:0.951" fill="#000000" d="M 511.5,266.5 C 511.5,269.5 511.5,272.5 511.5,275.5C 506.973,281.812 501.306,282.979 494.5,279C 471.5,256 448.5,233 425.5,210C 312.167,209.333 198.833,209.333 85.5,210C 62.5,233 39.5,256 16.5,279C 9.65311,282.973 3.98645,281.807 -0.5,275.5C -0.5,272.5 -0.5,269.5 -0.5,266.5C 82.2716,183.228 165.272,100.062 248.5,17C 253.167,13.6667 257.833,13.6667 262.5,17C 345.728,100.062 428.728,183.228 511.5,266.5 Z M 254.5,40.5 C 280.916,65.4142 306.916,90.9142 332.5,117C 281.167,117.667 229.833,117.667 178.5,117C 204.035,91.632 229.368,66.132 254.5,40.5 Z M 156.5,138.5 C 222.501,138.333 288.501,138.5 354.5,139C 371.167,155.667 387.833,172.333 404.5,189C 305.167,189.667 205.833,189.667 106.5,189C 123.368,172.299 140.035,155.465 156.5,138.5 Z"/></g>
<g><path style="opacity:0.94" fill="#000000" d="M 63.5,260.5 C 191.5,260.333 319.5,260.5 447.5,261C 456.715,264.089 458.881,269.922 454,278.5C 452.581,279.46 451.081,280.293 449.5,281C 320.167,281.667 190.833,281.667 61.5,281C 54.2554,277.356 52.5888,271.856 56.5,264.5C 58.5251,262.436 60.8584,261.102 63.5,260.5 Z"/></g>
<g><path style="opacity:0.943" fill="#000000" d="M 61.5,332.5 C 190.834,332.333 320.167,332.5 449.5,333C 456.482,336.213 458.315,341.38 455,348.5C 453.238,351.268 450.738,352.768 447.5,353C 402.835,353.5 358.168,353.667 313.5,353.5C 313.5,370.167 313.5,386.833 313.5,403.5C 357.835,403.333 402.168,403.5 446.5,404C 455.774,406.046 458.607,411.546 455,420.5C 453.786,422.049 452.286,423.215 450.5,424C 404.835,424.5 359.168,424.667 313.5,424.5C 313.5,441.5 313.5,458.5 313.5,475.5C 358.835,475.333 404.168,475.5 449.5,476C 456.053,478.73 458.22,483.563 456,490.5C 454.833,492.333 453.333,493.833 451.5,495C 386.223,496.162 320.89,496.662 255.5,496.5C 190.11,496.662 124.777,496.162 59.5,495C 53.6498,490.019 52.9832,484.353 57.5,478C 59.087,477.138 60.7536,476.471 62.5,476C 107.499,475.5 152.499,475.333 197.5,475.5C 197.5,458.5 197.5,441.5 197.5,424.5C 151.832,424.667 106.165,424.5 60.5,424C 54.4578,420.252 52.9578,415.085 56,408.5C 57.9344,405.312 60.7677,403.812 64.5,404C 108.832,403.5 153.165,403.333 197.5,403.5C 197.5,386.833 197.5,370.167 197.5,353.5C 152.832,353.667 108.165,353.5 63.5,353C 54.2855,349.861 52.1188,344.028 57,335.5C 58.6516,334.601 60.1516,333.601 61.5,332.5 Z M 218.5,353.5 C 243.167,353.5 267.833,353.5 292.5,353.5C 292.5,394.167 292.5,434.833 292.5,475.5C 267.833,475.5 243.167,475.5 218.5,475.5C 218.5,434.833 218.5,394.167 218.5,353.5 Z"/></g>
</svg>
