<?xml version="1.0" encoding="UTF-8"?>
<!DOCTYPE svg PUBLIC "-//W3C//DTD SVG 1.1//EN" "http://www.w3.org/Graphics/SVG/1.1/DTD/svg11.dtd">
<svg xmlns="http://www.w3.org/2000/svg" version="1.1" width="512px" height="512px" style="shape-rendering:geometricPrecision; text-rendering:geometricPrecision; image-rendering:optimizeQuality; fill-rule:evenodd; clip-rule:evenodd" xmlns:xlink="http://www.w3.org/1999/xlink">
<g><path style="opacity:0.926" fill="#000000" d="M 340.5,70.5 C 346.176,70.3339 351.843,70.5006 357.5,71C 361.406,73.7906 362.24,77.2906 360,81.5C 343.874,95.2744 341.208,111.274 352,129.5C 358.638,137.402 367.138,141.402 377.5,141.5C 382.827,140.733 388.16,140.566 393.5,141C 397.32,144.955 397.487,149.122 394,153.5C 375.688,175.633 353.188,181.133 326.5,170C 304.912,157.322 295.745,138.488 299,113.5C 303.898,90.4369 317.731,76.1036 340.5,70.5 Z M 332.5,89.5 C 333.239,89.369 333.906,89.5357 334.5,90C 325.172,116.662 332.505,137.328 356.5,152C 360.5,153.333 364.5,154.667 368.5,156C 349.488,164.264 333.321,160.43 320,144.5C 308.596,122.46 312.762,104.127 332.5,89.5 Z"/></g>
<g><path style="opacity:0.933" fill="#000000" d="M 197.5,78.5 C 200.187,78.3359 202.854,78.5026 205.5,79C 211.758,86.9284 218.925,93.7618 227,99.5C 228.888,108.279 225.388,111.779 216.5,110C 213.751,108.877 211.251,107.377 209,105.5C 208.333,110.833 208.333,116.167 209,121.5C 215.417,130.247 223.417,137.247 233,142.5C 235.023,150.126 232.19,153.959 224.5,154C 218.857,151.845 213.857,148.679 209.5,144.5C 208.338,149.131 208.172,153.798 209,158.5C 216.898,169.205 226.731,177.705 238.5,184C 242.723,192.756 240.056,197.089 230.5,197C 222.514,193.341 215.347,188.508 209,182.5C 208.085,188.944 208.419,195.277 210,201.5C 210.5,202 211,202.5 211.5,203C 256.559,203.015 301.559,203.682 346.5,205C 379.077,276.201 421.91,340.367 475,397.5C 475.412,392.648 477.246,388.481 480.5,385C 489.333,383.167 492.833,386.667 491,395.5C 488.461,408.527 485.795,421.527 483,434.5C 481.171,440.158 477.337,441.992 471.5,440C 469.129,438.257 467.795,435.923 467.5,433C 468.993,427.213 469.827,421.38 470,415.5C 444.844,388.817 421.844,360.483 401,330.5C 413.713,363.948 427.046,397.282 441,430.5C 442.892,436.042 441.059,439.542 435.5,441C 315.167,441.667 194.833,441.667 74.5,441C 70.7053,440.205 68.7053,437.872 68.5,434C 79.8045,405.753 91.3045,377.586 103,349.5C 103.667,346.5 103.667,343.5 103,340.5C 82.9644,366.875 61.7977,392.375 39.5,417C 41.8903,423.625 42.7237,430.458 42,437.5C 37.9586,442.313 33.6253,442.646 29,438.5C 25.1847,422.926 21.6847,407.259 18.5,391.5C 20.0315,384.956 24.0315,382.789 30.5,385C 33.6809,388.511 35.5142,392.678 36,397.5C 60.8294,370.809 83.496,342.476 104,312.5C 104.667,294.833 104.667,277.167 104,259.5C 95.5248,268.312 85.6915,275.145 74.5,280C 68.5232,281.168 65.1899,278.668 64.5,272.5C 65.0339,270.386 66.0339,268.552 67.5,267C 82.01,259.988 93.8434,249.822 103,236.5C 103.667,230.167 103.667,223.833 103,217.5C 96.9565,223.439 90.1232,228.273 82.5,232C 76.3865,233.446 72.7198,231.113 71.5,225C 72.1117,222.942 73.1117,221.109 74.5,219.5C 86.6605,213.508 96.4938,204.841 104,193.5C 104.667,188.833 104.667,184.167 104,179.5C 99.5942,183.288 94.7609,186.455 89.5,189C 80.274,189.946 77.274,186.113 80.5,177.5C 90.3717,172.796 98.2051,165.796 104,156.5C 104.829,151.467 104.662,146.467 103.5,141.5C 99.4314,145.043 94.7648,146.543 89.5,146C 84.9128,143.237 83.7461,139.403 86,134.5C 94.2646,129.736 101.098,123.403 106.5,115.5C 109.438,114.425 112.438,114.259 115.5,115C 121.419,122.921 128.586,129.421 137,134.5C 138.511,143.992 134.677,147.492 125.5,145C 123.246,143.623 121.08,142.123 119,140.5C 116.305,150.691 118.805,159.191 126.5,166C 131.738,170.203 137.238,174.036 143,177.5C 145.509,186.661 142.009,190.495 132.5,189C 127.446,186.611 122.946,183.445 119,179.5C 118.333,184.5 118.333,189.5 119,194.5C 127.508,205.68 137.842,214.68 150,221.5C 151.522,230.981 147.688,234.481 138.5,232C 131.154,228.323 124.654,223.489 119,217.5C 118.333,223.5 118.333,229.5 119,235.5C 124.651,243.149 130.984,250.149 138,256.5C 147.074,240.351 155.074,223.685 162,206.5C 162.903,205.299 164.069,204.465 165.5,204C 173.853,203.832 182.187,203.332 190.5,202.5C 191.145,201.354 191.978,200.354 193,199.5C 193.667,193.5 193.667,187.5 193,181.5C 187.124,187.186 180.624,192.02 173.5,196C 162.832,197.979 159.499,193.979 163.5,184C 175.425,178.413 185.259,170.246 193,159.5C 193.667,154.5 193.667,149.5 193,144.5C 187.93,148.868 182.263,152.201 176,154.5C 168.549,152.797 166.549,148.464 170,141.5C 179.247,136.583 186.913,129.916 193,121.5C 193.667,116.167 193.667,110.833 193,105.5C 188.905,109.469 184.071,110.969 178.5,110C 174.467,106.832 173.633,102.999 176,98.5C 184.646,93.3513 191.813,86.6846 197.5,78.5 Z M 173.5,219.5 C 225.838,219.167 278.171,219.5 330.5,220.5C 299.16,285.56 259.16,344.56 210.5,397.5C 209.546,393.509 208.213,389.676 206.5,386C 196.32,382.34 192.154,385.84 194,396.5C 196.012,406.213 198.178,415.879 200.5,425.5C 163.173,426.5 125.839,426.833 88.5,426.5C 116.553,357.392 144.887,288.392 173.5,219.5 Z M 334.5,249.5 C 335.499,308.331 335.832,367.331 335.5,426.5C 311.167,426.5 286.833,426.5 262.5,426.5C 286.497,367.512 310.497,308.512 334.5,249.5 Z M 392.5,353.5 C 378.566,338.396 364.399,323.396 350,308.5C 349.333,288.833 349.333,269.167 350,249.5C 364.456,284.074 378.622,318.741 392.5,353.5 Z M 118.5,260.5 C 122.469,263.825 126.469,267.159 130.5,270.5C 127.169,277.166 123.336,283.499 119,289.5C 118.5,279.839 118.334,270.172 118.5,260.5 Z M 284.5,329.5 C 271.696,361.913 258.696,394.247 245.5,426.5C 235.5,426.5 225.5,426.5 215.5,426.5C 215.133,422.733 214.633,419.067 214,415.5C 239.632,388.388 263.132,359.722 284.5,329.5 Z M 362.5,344.5 C 377.268,360.438 392.268,376.271 407.5,392C 400.946,400.22 394.78,408.72 389,417.5C 380.153,393.146 371.32,368.812 362.5,344.5 Z M 349.5,354.5 C 358.388,377.97 367.055,401.637 375.5,425.5C 366.859,426.498 358.192,426.831 349.5,426.5C 349.5,402.5 349.5,378.5 349.5,354.5 Z M 414.5,407.5 C 417.931,413.443 420.597,419.776 422.5,426.5C 415.492,426.666 408.492,426.5 401.5,426C 406.212,420.067 410.545,413.9 414.5,407.5 Z"/></g>
</svg>
