<?xml version="1.0" encoding="UTF-8"?>
<!DOCTYPE svg PUBLIC "-//W3C//DTD SVG 1.1//EN" "http://www.w3.org/Graphics/SVG/1.1/DTD/svg11.dtd">
<svg xmlns="http://www.w3.org/2000/svg" version="1.1" width="512px" height="512px" style="shape-rendering:geometricPrecision; text-rendering:geometricPrecision; image-rendering:optimizeQuality; fill-rule:evenodd; clip-rule:evenodd" xmlns:xlink="http://www.w3.org/1999/xlink">
<g><path style="opacity:0.902" fill="#000000" d="M 36.5,58.5 C 38.8568,58.3367 41.1902,58.5034 43.5,59C 44.7014,59.9025 45.5348,61.0692 46,62.5C 54.8444,94.8776 63.8444,127.211 73,159.5C 77.1918,161.239 81.6918,162.072 86.5,162C 87,162.5 87.5,163 88,163.5C 87.5407,168.189 87.5407,172.856 88,177.5C 86.3774,179.628 84.2107,180.961 81.5,181.5C 103.498,218.632 130.164,252.132 161.5,282C 163.116,282.615 164.449,283.615 165.5,285C 174.833,285.333 184.167,285.667 193.5,286C 200.148,289.461 202.981,294.961 202,302.5C 201.444,307.389 198.944,310.889 194.5,313C 207.026,344.873 230.36,360.873 264.5,361C 281.591,353.568 296.091,342.735 308,328.5C 311.483,323.703 314.316,318.536 316.5,313C 307.783,306.679 306.283,298.845 312,289.5C 313.833,288.333 315.667,287.167 317.5,286C 326.833,285.667 336.167,285.333 345.5,285C 368.988,264.167 389.821,241.001 408,215.5C 415.748,204.338 423.248,193.005 430.5,181.5C 428.535,180.708 426.535,180.041 424.5,179.5C 423.808,178.975 423.308,178.308 423,177.5C 423.459,172.856 423.459,168.189 423,163.5C 423.5,163 424,162.5 424.5,162C 429.308,162.072 433.808,161.239 438,159.5C 447.156,127.211 456.156,94.8776 465,62.5C 467.053,58.7084 470.219,57.5418 474.5,59C 475.43,60.1939 476.097,61.5272 476.5,63C 467.262,95.7864 458.262,128.62 449.5,161.5C 452.518,161.335 455.518,161.502 458.5,162C 461.966,164.661 462.299,167.661 459.5,171C 462.311,174.294 461.978,177.294 458.5,180C 455.447,180.179 452.447,180.679 449.5,181.5C 463.169,214.838 470.169,249.504 470.5,285.5C 487.418,284.657 493.251,292.324 488,308.5C 485.971,311.596 483.138,313.262 479.5,313.5C 472.698,348.601 454.698,376.268 425.5,396.5C 420.923,395.079 419.423,392.079 421,387.5C 439.595,372.627 453.595,354.294 463,332.5C 465.43,326.715 466.93,320.715 467.5,314.5C 420.829,314.167 374.162,314.5 327.5,315.5C 319.384,335.452 306.051,350.952 287.5,362C 250.509,382.467 210.842,391.467 168.5,389C 138.386,387.85 110.052,380.183 83.5,366C 75.7748,361.608 68.6081,356.441 62,350.5C 61.3333,351.167 61.3333,351.833 62,352.5C 82.4386,381.151 108.939,402.317 141.5,416C 207.242,441.854 274.242,445.521 342.5,427C 358.807,422.231 374.474,415.898 389.5,408C 397.172,407.035 399.505,410.035 396.5,417C 339.015,445.803 278.348,455.803 214.5,447C 165.34,441.07 121.34,423.07 82.5,393C 57.7419,372.324 42.0752,346.157 35.5,314.5C 24.5729,313.406 19.7395,307.406 21,296.5C 21.831,291.319 24.6643,287.819 29.5,286C 33.4862,285.501 37.4862,285.334 41.5,285.5C 41.1494,268.339 42.6494,251.339 46,234.5C 49.7197,216.178 54.553,198.178 60.5,180.5C 53.1814,182.319 49.6814,179.653 50,172.5C 50.5,172 51,171.5 51.5,171C 48.7006,167.661 49.0339,164.661 52.5,162C 55.4816,161.502 58.4816,161.335 61.5,161.5C 52.7379,128.62 43.7379,95.7864 34.5,63C 35.0439,61.415 35.7106,59.915 36.5,58.5 Z M 70.5,186.5 C 90.5514,217.894 113.051,247.56 138,275.5C 141.201,279.036 144.701,282.203 148.5,285C 116.502,285.5 84.5017,285.667 52.5,285.5C 52.8386,251.473 58.8386,218.473 70.5,186.5 Z M 439.5,187.5 C 452.427,218.8 459.094,251.467 459.5,285.5C 427.165,285.667 394.832,285.5 362.5,285C 392.891,256.123 418.558,223.623 439.5,187.5 Z M 32.5,296.5 C 38.5548,295.942 39.8881,298.109 36.5,303C 31.7836,303.057 30.4503,300.891 32.5,296.5 Z M 49.5,296.5 C 96.5047,296.167 143.505,296.5 190.5,297.5C 192.114,300.157 191.448,301.99 188.5,303C 142.168,303.5 95.8345,303.667 49.5,303.5C 49.5,301.167 49.5,298.833 49.5,296.5 Z M 321.5,296.5 C 325.677,295.842 327.177,297.508 326,301.5C 323.131,304.009 320.964,303.342 319.5,299.5C 320.193,298.482 320.859,297.482 321.5,296.5 Z M 337.5,296.5 C 384.505,296.167 431.505,296.5 478.5,297.5C 480.114,300.157 479.448,301.99 476.5,303C 430.168,303.5 383.835,303.667 337.5,303.5C 337.5,301.167 337.5,298.833 337.5,296.5 Z M 48.5,315.5 C 93.3315,314.335 138.331,314.169 183.5,315C 193.354,342.855 212.354,361.188 240.5,370C 193.226,383.462 146.893,380.795 101.5,362C 78.3201,352.646 60.6534,337.146 48.5,315.5 Z"/></g>
<g><path style="opacity:0.797" fill="#000000" d="M 408.5,396.5 C 415.153,397.638 416.819,401.138 413.5,407C 406.51,409.005 403.676,406.505 405,399.5C 406.145,398.364 407.312,397.364 408.5,396.5 Z"/></g>
</svg>
